PathFileType	4	(X/Y/Z)	S01_0003_Gait_markers.trc
DataRate	CameraRate	NumFrames	NumMarkers	Units	OrigDataRate	OrigDataStartFrame	OrigNumFrames
250.000000	250.000000	4	54	mm	250.000000	117	314
Frame#	Time	HEAD_ANT			R_HEAD			L_HEAD			C7			R_BACK			L_BACK			STERNUM			R_ACROMION			R_HUM_PROX			R_HUM_ANT			R_HUM_POST			R_ELBOW_LAT			R_ELBOW_MED			R_FOREARM			R_WIRST_LAT			R_WRITS_MED			R_HAND			L_ACROMION			L_HUM_PROX			L_HUM_ANT			L_HUM_POST			L_ELBOW_LAT			L_ELBOW_MED			L_FOREARM			L_WRIST_LAT			L_WIRST_MED			L_HAND			R_ILIAC			SACRUM			L_ILIAC			R_GTROCH			R_THIGH__1			R_THIGH_2			R_THIGH_3			R_THIGH_4			R_SHANK_1			R_SHANK_2			R_SHANK_3			R_SHANK_4			R_HEEL			R_FOOT_LAT			R_FOOT_MED			L_GTROCH			L_THIGH_1			L_THIGH_2			L_THIGH_3			L_THIGH_4			L_SHANK_1			L_SHANK_2			L_SHANK_3			L_SHANK_4			L_HEEL			L_FOOT_LAT			L_FOOT_MED			
		X1	Y1	Z1	X2	Y2	Z2	X3	Y3	Z3	X4	Y4	Z4	X5	Y5	Z5	X6	Y6	Z6	X7	Y7	Z7	X8	Y8	Z8	X9	Y9	Z9	X10	Y10	Z10	X11	Y11	Z11	X12	Y12	Z12	X13	Y13	Z13	X14	Y14	Z14	X15	Y15	Z15	X16	Y16	Z16	X17	Y17	Z17	X18	Y18	Z18	X19	Y19	Z19	X20	Y20	Z20	X21	Y21	Z21	X22	Y22	Z22	X23	Y23	Z23	X24	Y24	Z24	X25	Y25	Z25	X26	Y26	Z26	X27	Y27	Z27	X28	Y28	Z28	X29	Y29	Z29	X30	Y30	Z30	X31	Y31	Z31	X32	Y32	Z32	X33	Y33	Z33	X34	Y34	Z34	X35	Y35	Z35	X36	Y36	Z36	X37	Y37	Z37	X38	Y38	Z38	X39	Y39	Z39	X40	Y40	Z40	X41	Y41	Z41	X42	Y42	Z42	X43	Y43	Z43	X44	Y44	Z44	X45	Y45	Z45	X46	Y46	Z46	X47	Y47	Z47	X48	Y48	Z48	X49	Y49	Z49	X50	Y50	Z50	X51	Y51	Z51	X52	Y52	Z52	X53	Y53	Z53	X54	Y54	Z54	

118	0.468	861.62939453125	295.7103271484375	1736.460205078125	802.3384399414062	217.6125946044922	1688.334838867188	800.7619018554688	365.061279296875	1690.07763671875	658.396484375	287.3453979492188	1523.52490234375	586.2966918945312	213.1081848144531	1329.764038085938	579.2088012695312	357.1303405761719	1330.331665039062	831.639404296875	297.1521301269531	1357.038696289062	746.257080078125	120.0425567626953	1471.4404296875	737.10986328125	22.36069297790527	1312.70703125	807.9519653320312	32.38922500610352	1234.23291015625	691.8842163085938	-3.772777557373047	1223.4541015625	751.2326049804688	-0.7711460590362549	1123.391357421875	709.0686645507812	71.71136474609375	1114.416625976562	884.56494140625	30.19892501831055	964.3626098632812	925.20556640625	81.97954559326172	908.0363159179688	875.3954467773438	27.98252105712891	870.8845825195312	961.5999145507812	33.53120422363281	823.6065063476562	730.1483764648438	460.0882263183594	1477.909423828125	691.7371215820312	555.64013671875	1312.819702148438	747.9780883789062	560.0859375	1227.801879882812	625.1361083984375	577.01806640625	1239.676879882812	675.667236328125	587.2091674804688	1131.173828125	627.822509765625	527.1882934570312	1131.645751953125	767.4907836914062	586.8063354492188	950.0879516601562	805.0400390625	539.9649047851562	887.7088623046875	747.7059326171875	593.4996948242188	868.3023071289062	823.3972778320312	594.505615234375	811.0077514648438	718.51416015625	121.3784027099609	1073.204467773438	592.93408203125	293.3947448730469	1045.481689453125	710.3433837890625	464.8147888183594	1068.480224609375	661.581298828125	112.3036499023438	935.9640502929688	631.2523803710938	130.7043914794922	664.5938110351562	689.9588012695312	125.7009124755859	667.4077758789062	670.7877197265625	161.3222961425781	566.9432983398438	609.215087890625	152.4657135009766	587.3184204101562	535.0726928710938	153.8271942138672	363.2417297363281	584.24462890625	170.6212768554688	331.9071350097656	561.8411865234375	190.8034973144531	251.1328277587891	501.2232360839844	179.2840118408203	270.0232238769531	415.8094177246094	267.1899108886719	78.84336090087891	568.9701538085938	180.9295501708984	19.70661354064941	629.1124877929688	280.9213256835938	28.81451034545898	691.0486450195312	475.1218872070312	952.6399536132812	871.2103881835938	468.9408264160156	700.9061889648438	814.6399536132812	486.24462890625	700.2323608398438	836.2852172851562	456.1026000976562	598.7940063476562	895.4107055664062	445.9513854980469	623.3265991210938	904.55908203125	449.605224609375	347.7991333007812	850.31494140625	445.7928466796875	320.248779296875	859.2930908203125	429.4826049804688	234.1573638916016	921.6384887695312	429.5923461914062	248.1180572509766	853.2220458984375	354.4059753417969	41.96084976196289	1020.501220703125	443.6211547851562	42.28853225708008	1063.264770507812	355.4333801269531	60.71941757202148	
119	0.472	867.1084594726562	296.27392578125	1735.579956054688	807.9111938476562	217.9625396728516	1687.405639648438	806.1342163085938	365.5372924804688	1689.10986328125	663.8726196289062	287.6566772460938	1522.626220703125	591.6364135742188	213.2091674804688	1329.08349609375	584.5729370117188	357.3146057128906	1329.53515625	837.0869750976562	297.5738830566406	1355.858154296875	752.0624389648438	120.2757415771484	1470.471801757812	743.0415649414062	22.86539649963379	1311.735961914062	814.1077880859375	32.73244476318359	1233.5068359375	697.8187866210938	-3.489293575286865	1222.383666992188	757.693359375	-0.4842602014541626	1122.520874023438	715.4121704101562	71.81815338134766	1113.276123046875	891.3656616210938	30.66567993164062	963.7467651367188	932.13134765625	82.54572296142578	907.6343383789062	882.458740234375	28.5605583190918	870.3402709960938	968.7479858398438	34.10384750366211	823.3427734375	735.5402221679688	460.3166809082031	1476.945190429688	696.591552734375	555.84521484375	1311.912719726562	752.567626953125	560.5040893554688	1226.85107421875	629.8554077148438	576.9409790039062	1238.900268554688	680.4480590820312	587.4207763671875	1130.379272460938	632.5254516601562	527.4482421875	1130.732543945312	772.0698852539062	587.2893676757812	949.0642700195312	809.31640625	540.3905029296875	886.764892578125	751.9605102539062	594.0907592773438	867.2857666015625	827.4950561523438	595.0794067382812	810.0228881835938	723.9361572265625	121.5121231079102	1072.133666992188	598.2440795898438	293.7386169433594	1044.360717773438	715.6051025390625	465.0012817382812	1067.56982421875	666.7285766601562	112.4752044677734	935.5231323242188	634.8702392578125	130.880126953125	664.6940307617188	693.4318237304688	126.0831451416016	666.9669189453125	674.049560546875	161.0860290527344	566.8854370117188	612.6103515625	152.3793029785156	587.461181640625	537.0269775390625	153.8781127929688	363.6858520507812	585.9696655273438	170.7344512939453	331.9714050292969	563.0443725585938	190.8652038574219	251.3966217041016	502.6260681152344	179.1555480957031	270.6876831054688	416.0867004394531	267.49072265625	79.77743530273438	568.8516845703125	181.027099609375	19.75740051269531	629.170654296875	280.9124145507812	28.77465057373047	696.3490600585938	475.6165161132812	951.6654663085938	875.86767578125	469.0077209472656	699.3626708984375	818.9868774414062	486.3464050292969	698.7012939453125	840.2025146484375	455.5465698242188	597.281005859375	899.681396484375	445.6902160644531	621.302978515625	913.5184936523438	449.1024475097656	347.5464172363281	859.8275146484375	445.2595825195312	318.6126403808594	870.6657104492188	429.2303771972656	232.8594055175781	932.7015380859375	429.3377990722656	247.9966735839844	869.0938720703125	354.3224182128906	40.52331924438477	1036.578735351562	443.1344909667969	44.04391479492188	1079.002807617188	355.10693359375	63.72222137451172	
120	0.476	872.5009765625	296.6581420898438	1734.701293945312	813.3875122070312	218.4317779541016	1686.565307617188	811.648681640625	365.8963317871094	1687.996215820312	669.4217529296875	287.9017333984375	1521.632080078125	597.0957641601562	213.2068939208984	1328.218505859375	589.9901733398438	357.5018310546875	1328.681030273438	842.5228271484375	298.2738342285156	1354.872192382812	757.7200317382812	120.593017578125	1469.416748046875	749.11376953125	22.97923851013184	1310.895263671875	820.2368774414062	33.19461059570312	1232.691650390625	704.1450805664062	-3.317094087600708	1221.373046875	764.3643188476562	-0.1756454557180405	1121.637329101562	721.6983032226562	72.0611572265625	1112.26513671875	898.1400756835938	31.1036262512207	963.2752685546875	939.0369262695312	83.01746368408203	907.2777709960938	889.4603881835938	29.06617164611816	869.796875	975.844970703125	34.79835510253906	823.0598754882812	740.858642578125	460.7752075195312	1476.002685546875	701.7488403320312	556.173828125	1311.093994140625	757.6200561523438	561.1482543945312	1225.825561523438	634.8007202148438	576.0375366210938	1237.895385742188	684.9243774414062	587.7737426757812	1129.511108398438	637.3423461914062	527.4415893554688	1129.739379882812	776.3925170898438	587.2537231445312	947.891845703125	813.737060546875	540.9388427734375	885.5706176757812	756.3724975585938	594.46533203125	866.2662963867188	831.798828125	595.6923217773438	808.79833984375	729.492919921875	121.7840347290039	1070.937255859375	603.7067260742188	294.2554626464844	1043.299438476562	720.7444458007812	465.31201171875	1066.719482421875	671.8163452148438	112.7006683349609	935.1279296875	638.5447998046875	130.9763336181641	664.6842041015625	697.3043212890625	125.9655380249023	666.7163696289062	677.0791015625	161.4334411621094	566.4044799804688	615.96337890625	152.5947418212891	587.4883422851562	539.0825805664062	154.0330505371094	364.1680908203125	587.8191528320312	170.7243347167969	332.1190185546875	564.4033203125	190.9702758789062	251.5524291992188	504.0701293945312	179.3341522216797	271.2872619628906	416.4040222167969	267.4012756347656	80.82745361328125	568.7716064453125	181.1566619873047	19.78138732910156	629.1580200195312	280.9288940429688	28.74126434326172	702.0629272460938	475.7834777832031	950.4873046875	880.3607177734375	468.8118896484375	697.5951538085938	823.3908081054688	485.9360961914062	696.7633056640625	844.5816650390625	455.1918640136719	595.6187744140625	903.9155883789062	445.3732299804688	620.037353515625	922.4112548828125	448.6476440429688	347.3281555175781	869.3103637695312	444.7731018066406	317.2552795410156	882.1672973632812	428.6433410644531	231.5946044921875	943.8076171875	428.9544067382812	248.3080291748047	884.3638305664062	354.0948486328125	39.48770904541016	1052.077880859375	443.0230102539062	46.23136138916016	1094.227294921875	354.80810546875	66.63236999511719	
121	0.48	878.048095703125	297.113037109375	1733.836547851562	818.7720336914062	218.7744903564453	1685.580932617188	817.0574340820312	366.2977600097656	1687.007568359375	674.8289184570312	288.1558532714844	1520.733276367188	602.5299072265625	213.4558258056641	1327.33203125	595.3847045898438	357.7611083984375	1327.807983398438	847.9534301757812	298.5604858398438	1353.868530273438	763.4033813476562	120.9978790283203	1468.410034179688	755.2307739257812	23.38552856445312	1309.935791015625	826.3946533203125	33.60935974121094	1231.840209960938	710.3944702148438	-3.049761533737183	1220.34814453125	771.1925659179688	0.1594984531402588	1120.59765625	727.9111938476562	72.28240966796875	1111.29296875	904.7976684570312	31.70219993591309	962.6392211914062	945.851806640625	83.49610900878906	906.8206176757812	896.4407958984375	29.68264007568359	869.1964721679688	982.8353271484375	35.22919845581055	822.517822265625	746.1631469726562	461.1317749023438	1475.051879882812	706.7031860351562	556.47705078125	1310.078857421875	762.3347778320312	561.2120971679688	1224.829345703125	639.5941162109375	577.3037719726562	1237.237670898438	686.923583984375	588.9602661132812	1129.603759765625	642.2110595703125	527.3911743164062	1128.757934570312	780.8510131835938	587.5266723632812	946.8411254882812	818.2608032226562	541.5571899414062	884.4149169921875	760.4711303710938	594.8915405273438	865.3395385742188	835.8585815429688	596.3585205078125	807.675537109375	735.0501098632812	122.1514663696289	1069.885986328125	609.1898803710938	294.5668640136719	1042.244873046875	726.215087890625	465.6910400390625	1065.746215820312	676.93115234375	112.8185882568359	934.6098022460938	642.3603515625	131.3040771484375	664.6934814453125	701.0068359375	126.3974151611328	666.306640625	680.5460815429688	161.3019256591797	566.1506958007812	619.2509765625	152.6937408447266	587.5220336914062	541.1047973632812	154.1374359130859	364.4349670410156	589.7245483398438	170.783447265625	332.2246398925781	565.7701416015625	190.933349609375	251.8523254394531	505.6429748535156	179.3346405029297	272.0304565429688	416.8099060058594	267.3310546875	82.08774566650391	568.6968383789062	181.2097015380859	19.79668426513672	629.1995849609375	280.8514099121094	28.66396903991699	707.4637451171875	475.9536437988281	949.2434692382812	884.504150390625	467.9559020996094	695.1483154296875	827.5282592773438	485.7925415039062	694.768310546875	848.6300048828125	454.5185241699219	594.0974731445312	908.1276245117188	444.8888244628906	618.390380859375	930.9319458007812	448.2082214355469	346.9316101074219	878.6188354492188	444.4870910644531	315.8563537597656	892.69482421875	429.0525207519531	231.1525726318359	954.5478515625	428.637451171875	248.5063171386719	899.7359008789062	354.3849792480469	38.63950347900391	1067.5458984375	442.0361938476562	47.91320419311523	1109.01123046875	354.4331665039062	69.69303894042969	
